<svg width="56" height="56" viewBox="0 0 56 56" fill="none" xmlns="http://www.w3.org/2000/svg">
<g clip-path="url(#clip0_355_184)">
<g filter="url(#filter0_d_355_184)">
<rect x="10" y="10" width="36" height="36" rx="18" fill="#D9D9D9"/>
</g>
<path d="M13.1715 17.801C12.0108 19.4858 11.1286 21.3775 10.5938 23.4108H18.7816L13.1715 17.801Z" fill="#29337A"/>
<path d="M22.9594 10.7207C20.8854 11.3247 18.9648 12.2884 17.2734 13.5455L22.9594 19.2314V10.7207Z" fill="#29337A"/>
<path d="M17.6992 42.7554C19.2857 43.8655 21.0581 44.7249 22.9623 45.2794V37.4932L17.6992 42.7554Z" fill="#29337A"/>
<path d="M10.8008 33.3149C11.3959 35.2428 12.308 37.0313 13.4735 38.6223L18.7809 33.3149H10.8008Z" fill="#29337A"/>
<path d="M13.4667 17.3828C13.3661 17.5204 13.2669 17.6599 13.1697 17.8009L18.7798 23.4107H10.5919C10.4592 23.9157 10.3509 24.4304 10.2617 24.9523H21.0368L13.4667 17.3828Z" fill="white"/>
<path d="M17.2773 42.4577C17.4143 42.5598 17.5551 42.6569 17.6948 42.7547L22.9579 37.4923V45.2786C23.4635 45.4264 23.977 45.554 24.4995 45.6566V35.2358L17.2773 42.4577Z" fill="white"/>
<path d="M10.3984 31.7729C10.5102 32.2953 10.642 32.8098 10.798 33.3145H18.7782L13.4708 38.6219C14.0481 39.4106 14.6881 40.1507 15.3836 40.835L24.4456 31.7729H10.3984Z" fill="white"/>
<path d="M22.9596 10.7203V19.231L17.2736 13.5454C16.4898 14.1283 15.757 14.7755 15.0781 15.4761L24.5009 24.8988V10.3423C23.9788 10.4455 23.4653 10.5734 22.9596 10.7203Z" fill="white"/>
<path d="M22.9603 33.2605L22.9062 33.3148H22.9603V33.2605Z" fill="#D32030"/>
<path d="M24.4492 31.773H24.5032V31.7188L24.4492 31.773Z" fill="#D32030"/>
<path d="M31.3762 24.9521H31.3242V25.0044L31.3762 24.9521Z" fill="#D32030"/>
<path d="M23.0141 23.4109L22.9609 23.3574V23.4109H23.0141Z" fill="#D32030"/>
<path d="M24.5 24.8989V24.9521H24.5532L24.5 24.8989Z" fill="#D32030"/>
<path d="M32.8633 41.2945V45.3295C34.7923 44.7895 36.5907 43.9383 38.1994 42.8293L33.8273 38.4573C33.478 39.6848 33.3501 40.3194 32.8633 41.2945Z" fill="#252F6C"/>
<path d="M33.8504 18.2441L38.6231 13.4713C36.9085 12.2157 34.9633 11.2587 32.8633 10.6704V14.8153C33.4246 15.9394 33.4718 16.7935 33.8504 18.2441Z" fill="#252F6C"/>
<path d="M42.4552 38.7272C43.6572 37.1103 44.5939 35.2851 45.2024 33.3149H37.043L42.4552 38.7272Z" fill="#252F6C"/>
<path d="M45.4066 23.4109C44.8603 21.3347 43.9517 19.4075 42.7543 17.6963L37.0391 23.4109H45.4066Z" fill="#252F6C"/>
<path d="M34.8984 32.0781L36.1353 33.315L42.056 39.2357C42.1905 39.0675 42.324 38.8998 42.4525 38.7273L37.0403 33.315H45.1997C45.3552 32.8105 45.4873 32.2959 45.5987 31.7734H35.0141C34.9968 31.992 34.9192 31.861 34.8984 32.0781Z" fill="#F5F5F5"/>
<path d="M33.6613 19.1466L39.0275 13.7798C38.8931 13.6756 38.7584 13.5718 38.6211 13.4712L33.8483 18.244C33.8978 18.4327 33.6153 18.9533 33.6613 19.1466Z" fill="#E7E7E7"/>
<path d="M32.8619 14.4834V10.6698C32.3569 10.5283 31.8427 10.4084 31.3203 10.3105V12.1707C31.8939 12.7926 32.408 13.5736 32.8619 14.4834Z" fill="#F5F5F5"/>
<path d="M34.7786 24.9521H45.7375C45.6485 24.4303 45.54 23.9159 45.4073 23.4105H37.0398L42.755 17.6959C42.1932 16.8932 41.5687 16.1384 40.8866 15.439L34.4492 21.8758C34.6226 23.0434 34.7002 23.7214 34.7786 24.9521Z" fill="#F5F5F5"/>
<path d="M33.5664 38.1961L38.1988 42.829C38.9693 42.2984 39.6949 41.7078 40.3719 41.0667L34.2787 34.9731C34.0842 36.1001 33.8535 37.1886 33.5664 38.1961Z" fill="#F5F5F5"/>
<path d="M31.3203 43.6153V45.6886C31.8427 45.5914 32.3566 45.4709 32.8619 45.3294V41.2944C32.4077 42.2045 31.8936 42.9943 31.3203 43.6153Z" fill="#E7E7E7"/>
<path d="M34.4516 21.8758L40.8884 15.439C40.3089 14.8439 39.6876 14.29 39.0305 13.7798L33.9727 18.8385C34.1975 19.7781 34.2995 20.8535 34.4516 21.8758Z" fill="#D71F28"/>
<path d="M27.1016 10.0222C27.4015 10.0077 27.7004 10 27.9997 10C27.6987 10 27.3992 10.0077 27.1016 10.0222Z" fill="#D32030"/>
<path d="M27.9991 45.9998C27.6998 45.9998 27.4009 45.9916 27.1016 45.9771C27.3992 45.9921 27.6982 45.9998 27.9991 45.9998Z" fill="#D32030"/>
<path d="M28 46.0001C29.1357 46.0001 30.2447 45.8901 31.3218 45.6885V43.6152C30.3763 44.6401 29.2702 46.0001 28 46.0001Z" fill="#D32030"/>
<path d="M45.7354 24.9521H34.9189C35.0622 27.2097 35.0449 29.5311 34.8672 31.7732H45.5985C45.8583 30.5559 45.9975 29.2946 45.9975 28.0003C45.9975 26.9606 45.9048 25.9437 45.7354 24.9521Z" fill="#D71F28"/>
<path d="M34.8992 32.0781C34.7992 33.1417 34.4507 33.9704 34.2773 34.9737L40.3705 41.0669C40.9734 40.4956 41.5369 39.8845 42.0565 39.2357L36.136 33.3147L34.8992 32.0781Z" fill="#D71F28"/>
<path d="M31.3219 12.3046V10.3109C30.2451 10.11 29.1361 10 28 10C29.2702 10 30.3763 11.2801 31.3219 12.3046Z" fill="#D32030"/>
<path d="M32.8633 42.0727C33.3501 41.0973 33.7676 39.9744 34.1172 38.7471L32.8633 37.4932V42.0727Z" fill="#29337A"/>
<path d="M34.2732 17.8207C33.8941 16.3701 33.4246 15.0513 32.8633 13.9272V19.23L34.2732 17.8207Z" fill="#29337A"/>
<path d="M35.2477 32.4274C35.2682 32.2103 35.2866 31.9923 35.3043 31.7734H34.5938L35.2477 32.4274Z" fill="white"/>
<path d="M32.8619 19.2305V13.9274C32.4077 13.0176 31.8939 12.2361 31.3203 11.6147V21.4877L34.4162 18.3918C34.3696 18.1985 34.3207 18.0092 34.2718 17.8205L32.8619 19.2305Z" fill="white"/>
<path d="M31.3711 24.9524H35.3557C35.2776 23.7218 35.1531 22.511 34.98 21.3438L31.3711 24.9524Z" fill="white"/>
<path d="M31.3203 44.3853C31.8939 43.7635 32.4077 42.9824 32.8619 42.0727V37.4932L34.1158 38.7471C34.4034 37.739 34.6447 36.6621 34.8398 35.5352L31.3204 32.0161L31.3203 44.3853Z" fill="white"/>
<path d="M31.3216 44.3851V32.016L34.8407 35.5353C35.0138 34.5317 35.15 33.491 35.2497 32.4272L34.5957 31.7732H35.3062C35.4839 29.531 35.5012 27.2096 35.358 24.9521H31.3734L34.982 21.3435C34.83 20.3209 34.6418 19.3318 34.417 18.3919L31.3217 21.4878V11.6149C30.376 10.59 29.2699 10 27.9997 10C27.7004 10 27.4014 10.0077 27.1016 10.0222C26.2163 10.0665 25.348 10.1754 24.5005 10.3425V24.899L15.0775 15.4762C14.4985 16.0737 13.9599 16.7103 13.4671 17.383L19.4949 23.4109L21.037 24.9524H10.2621C10.0933 25.9437 10 26.9606 10 28.0003C10 29.2949 10.1398 30.5559 10.399 31.7732H24.4465L15.3844 40.8353C15.9778 41.4182 16.6096 41.9611 17.2784 42.4578L24.5002 35.236V45.6569C25.3477 45.8241 26.2166 45.9329 27.1019 45.9773C27.4012 45.9918 27.7002 46 27.9995 46C29.2699 46 30.376 45.41 31.3216 44.3851Z" fill="#E51D35"/>
</g>
<defs>
<filter id="filter0_d_355_184" x="2" y="6" width="52" height="52" filterUnits="userSpaceOnUse" color-interpolation-filters="sRGB">
<feFlood flood-opacity="0" result="BackgroundImageFix"/>
<feColorMatrix in="SourceAlpha" type="matrix" values="0 0 0 0 0 0 0 0 0 0 0 0 0 0 0 0 0 0 127 0" result="hardAlpha"/>
<feOffset dy="4"/>
<feGaussianBlur stdDeviation="4"/>
<feComposite in2="hardAlpha" operator="out"/>
<feColorMatrix type="matrix" values="0 0 0 0 0 0 0 0 0 0 0 0 0 0 0 0 0 0 0.25 0"/>
<feBlend mode="normal" in2="BackgroundImageFix" result="effect1_dropShadow_355_184"/>
<feBlend mode="normal" in="SourceGraphic" in2="effect1_dropShadow_355_184" result="shape"/>
</filter>
<clipPath id="clip0_355_184">
<rect width="56" height="56" fill="white"/>
</clipPath>
</defs>
</svg>
