<svg width="56" height="56" viewBox="0 0 56 56" fill="none" xmlns="http://www.w3.org/2000/svg">
<g clip-path="url(#clip0_355_126)">
<g filter="url(#filter0_d_355_126)">
<rect x="10" y="10" width="36" height="36" rx="18" fill="#D9D9D9"/>
</g>
<path d="M27.9992 45.9999C37.9399 45.9999 45.9985 37.9414 45.9985 28.0007C45.9985 18.06 37.9399 10.0015 27.9992 10.0015C18.0585 10.0015 10 18.06 10 28.0007C10 37.9414 18.0585 45.9999 27.9992 45.9999Z" fill="white"/>
<path d="M44.9734 21.9985H33.8828C34.3646 25.8436 34.3674 30.0804 33.8922 33.9303H44.9969C45.6452 32.073 46.0016 30.0784 46.0016 28.0002C46.0019 25.8948 45.6372 23.8758 44.9734 21.9985Z" fill="#F5F5F5"/>
<path d="M33.8812 21.9987H44.9715C44.9698 21.993 44.968 21.9882 44.9658 21.9831C42.6625 15.4874 36.7367 10.7084 29.6172 10.074C32.3721 11.5843 33.1769 16.3693 33.8812 21.9987Z" fill="#C42B27"/>
<path d="M29.6172 45.9256C36.7498 45.2901 42.6838 40.4946 44.9786 33.9816C44.9846 33.9642 44.9897 33.9472 44.9959 33.9304H33.8909C33.192 39.5902 32.3837 44.409 29.6172 45.9256Z" fill="#0B0B0B"/>
<path d="M10 28.0002C10 30.0787 10.357 32.073 11.0047 33.9303H34.8168C35.2926 30.0801 35.2892 25.8436 34.808 21.9985H11.0286C10.3647 23.8758 10 25.8948 10 28.0002Z" fill="white"/>
<path d="M11.033 21.983C11.0314 21.988 11.0296 21.9929 11.0273 21.9986H34.8068C34.102 16.3692 32.3705 11.5842 29.6154 10.0739C29.0825 10.0268 28.5437 10 27.9985 10C20.1682 10 13.5094 15.001 11.033 21.983Z" fill="#CC3434"/>
<path d="M34.8161 33.9304H11.0039C11.0099 33.9472 11.0155 33.9642 11.0212 33.9816C13.4877 40.9814 20.1561 46 27.9989 46C28.5441 46 29.0829 45.9733 29.6159 45.9255C32.3827 44.409 34.1172 39.5902 34.8161 33.9304Z" fill="#151515"/>
<path d="M31.5138 32.1869C31.2961 32.1287 30.9733 32.1765 30.713 32.1608C30.6635 32.1898 30.6698 32.275 30.6476 32.3319C30.6732 32.3848 30.7263 32.3557 30.7791 32.3972C30.8613 32.476 30.9172 32.5825 31.0417 32.6204C30.9346 32.7326 30.9375 32.954 30.7791 33.0146C30.8059 33.2727 30.6382 33.3181 30.3849 33.3688C29.173 33.6104 27.2884 33.6348 26.0001 33.4603C25.8401 33.4392 25.3706 33.3693 25.2512 33.2639C25.204 33.2212 25.1755 33.1579 25.1858 33.0402C25.0337 32.9646 25.0321 32.7386 24.9104 32.6332C25.0803 32.5755 25.113 32.3811 25.3046 32.3445C25.3103 32.2641 25.2756 32.224 25.2645 32.1609C24.9943 32.1754 24.6657 32.1305 24.4375 32.187C24.4586 31.8934 24.4653 31.5598 24.4904 31.2156C24.5237 30.7555 24.5188 30.2163 24.5558 29.7584C24.5751 29.5248 24.5674 29.2832 24.5825 29.0496C24.6098 28.6059 24.5902 28.1654 24.622 27.7496C24.6558 27.3011 24.6402 26.8219 24.6743 26.3978C24.7093 25.9582 24.8303 25.6069 25.3437 25.6489C25.9521 25.6995 26.3344 26.2091 26.9977 26.2134C27.3058 26.0229 27.53 25.2831 27.4439 24.7301C27.4044 24.4742 27.1335 24.1045 26.8667 24.2443C26.8272 23.8129 27.2382 23.8709 27.5096 24.0079C27.5923 23.9561 27.6168 23.8834 27.7066 23.8635C27.9291 23.814 28.215 23.9153 28.3239 23.9818C28.5305 24.1082 28.6263 24.3887 28.626 24.7434C28.6254 24.9271 28.5845 25.1098 28.5992 25.2945C28.6319 25.6865 28.7652 26.005 28.9278 26.2006C29.5439 26.2571 29.9969 25.7083 30.5947 25.6489C30.8491 25.6239 31.0611 25.7194 31.1725 25.8853C31.3425 26.516 31.2885 27.2126 31.3431 27.9203C31.3758 28.3443 31.3564 28.7875 31.3826 29.2203C31.4419 30.1988 31.4712 31.1814 31.5138 32.1869ZM28.5597 25.3207C28.5329 24.9643 28.6319 24.5823 28.5074 24.2571C28.4491 24.2017 28.4153 24.1215 28.3363 24.0866C28.271 24.0866 28.2053 24.0866 28.1399 24.0866C28.0416 24.1395 28.0055 24.2486 27.9035 24.2702C27.6608 24.3219 27.6415 24.0914 27.4573 24.0209C27.4096 24.0021 27.3448 24.0127 27.2862 23.9941C27.1103 23.9404 27.006 23.8776 26.9188 24.1257C27.2402 24.1069 27.5272 24.2107 27.6015 24.4804C27.4179 24.4293 27.4693 24.5941 27.4832 24.7029C27.5509 25.2441 27.4303 25.6801 27.2468 25.9768C27.1595 26.1183 27.0476 26.2289 26.9842 26.3576C27.1752 26.3221 27.3477 26.3331 27.4438 26.2127C27.5725 26.0524 27.5447 25.7093 27.6274 25.5172C27.6197 25.9248 27.5041 26.2255 27.3128 26.4491C27.7805 26.3832 27.8619 25.993 27.9034 25.5172C27.9377 25.7531 27.8749 26.0057 27.7979 26.1735C27.8585 26.2491 27.8929 26.3505 27.9821 26.3971C28.056 26.3355 28.1108 26.2545 28.1526 26.1607C28.0845 26.0058 28.0035 25.7245 28.0739 25.5173C28.0679 26.0223 28.2061 26.3833 28.6389 26.4492C28.4647 26.2289 28.2964 25.864 28.3496 25.5039C28.3646 25.7864 28.4329 26.0158 28.5201 26.2261C28.6406 26.3028 28.7926 26.3477 28.9802 26.3576C28.7706 26.1023 28.5935 25.7626 28.5597 25.3207ZM27.7332 24.1261C27.7332 24.1434 27.7332 24.161 27.7332 24.1784C27.7647 24.1733 27.7616 24.2028 27.7982 24.1917C27.8099 24.1767 27.8162 24.1568 27.8116 24.1264C27.7946 24.1085 27.7497 24.1085 27.7332 24.1261ZM25.1992 25.6881C24.909 25.7108 24.7524 25.9536 24.753 26.2398C24.8801 26.196 25.0011 26.0772 25.1338 26.0821C25.0628 28.0577 24.9761 29.855 24.8974 31.8064C24.7832 31.9141 24.6371 31.9917 24.5561 32.1344C24.7925 32.1344 25.029 32.1344 25.2649 32.1344C25.3022 31.8212 25.654 31.757 25.9476 31.8451C26.0869 31.3633 26.2285 30.8836 26.3552 30.3879C26.2248 30.4678 26.1582 30.6111 26.0267 30.69C26.0739 29.4267 26.1378 28.1972 26.1844 26.9092C26.387 27.0669 26.7162 27.0763 27.0376 27.0274C27.4224 26.9686 27.7552 26.7554 27.9956 26.607C28.2477 26.8307 28.7096 27.0178 29.1774 27.0532C29.4687 27.0754 29.6031 26.9805 29.7813 26.935C29.8086 28.2222 29.9007 29.4812 29.9257 30.7031C29.8186 30.6042 29.7302 30.4871 29.6111 30.4007C29.7271 30.8975 29.878 31.3594 30.0047 31.8451C30.3105 31.7485 30.6481 31.8323 30.7007 32.1344C30.9321 32.1256 31.1992 32.1518 31.409 32.1211C31.3263 31.9744 31.1224 31.9323 31.0682 31.7797C31.0065 31.6078 31.0514 31.3458 31.042 31.1229C30.9698 29.5354 30.869 27.6601 30.8317 26.0693C30.9804 26.1043 31.0747 26.1938 31.2126 26.2399C31.183 25.9236 31.0517 25.7081 30.753 25.6882C30.0735 25.6428 29.6815 26.2677 28.994 26.2527C28.994 26.336 29.1279 26.3547 29.1123 26.4104C28.9807 26.401 28.786 26.3911 28.6527 26.345C28.64 26.4177 28.7721 26.451 28.7838 26.5414C28.5228 26.4971 28.327 26.387 28.167 26.2398C28.1059 26.3271 28.051 26.4215 27.97 26.4891C27.9007 26.4104 27.8578 26.3032 27.773 26.2398C27.6349 26.3993 27.4428 26.5047 27.1696 26.5285C27.208 26.462 27.2873 26.4364 27.3007 26.3449C27.1796 26.387 26.9781 26.4148 26.8411 26.3978C26.8818 26.3501 26.9511 26.3325 26.9594 26.2529C26.3065 26.2711 25.852 25.6378 25.1992 25.6881ZM26.4725 27.1067C26.4986 28.5459 27.0474 29.5773 27.995 30.1393C28.8982 29.5452 29.4715 28.5522 29.4789 27.1067C29.0159 27.1007 28.6896 27.0333 28.4025 26.9097C28.2411 26.8404 28.0856 26.7127 27.9563 26.6732C27.5994 26.9549 27.1108 27.1061 26.4725 27.1067ZM26.4986 28.0647C26.4864 28.7025 26.3844 29.4812 26.4333 30.1392C26.5671 29.7845 26.5299 29.3349 26.5515 28.8659C26.5661 28.5519 26.6303 28.2341 26.512 28.0255C26.5125 28.0434 26.5057 28.0539 26.4986 28.0647ZM29.4135 29.2465C29.4135 29.5995 29.4308 29.9436 29.5445 30.1519C29.5579 29.4537 29.47 28.7275 29.4664 28.038C29.4491 28.0375 29.4482 28.0218 29.4269 28.0252C29.3356 28.3717 29.4135 28.8184 29.4135 29.2465ZM26.7089 29.9948C26.822 29.8672 26.9483 29.7526 27.0503 29.6133C27.0329 29.3291 26.9641 29.0961 26.8138 28.9443C26.7728 29.2814 26.4486 29.7165 26.7089 29.9948ZM28.9144 29.6268C29.0377 29.7405 29.1432 29.9406 29.2819 29.9949C29.4777 29.6757 29.1951 29.3332 29.1642 28.9705C29.1469 28.97 29.1454 28.9532 29.1242 28.9577C28.9937 29.1194 28.9173 29.3363 28.9144 29.6268ZM27.1551 30.2179C27.2762 30.0892 27.3811 29.9442 27.4831 29.7976C27.3199 29.6677 27.2011 29.4935 27.0503 29.3507C27.0841 29.641 27.1031 29.9454 27.1551 30.2179ZM28.4813 29.8103C28.5961 29.9448 28.6771 30.1133 28.8226 30.2179C28.8493 29.9337 28.8709 29.6449 28.9141 29.3775C28.913 29.3613 28.9101 29.3465 28.8879 29.3507C28.7667 29.5185 28.6219 29.6629 28.4813 29.8103ZM26.6694 30.073C26.6532 29.9885 26.6088 29.9326 26.5907 29.8505C26.4776 30.0014 26.4642 30.2273 26.4071 30.4277C26.386 30.501 26.3355 30.561 26.3417 30.638C26.492 30.5734 26.5537 30.4208 26.7092 30.362C26.737 30.4919 26.8018 30.584 26.8402 30.7033C26.9619 30.645 26.9562 30.4604 27.0639 30.3882C27.1233 30.5996 27.1855 30.8088 27.2602 31.0054C27.4001 30.8872 27.5595 30.7877 27.6016 30.572C27.5228 30.3926 27.4506 30.2068 27.3784 30.0209C27.2719 30.0937 27.2042 30.2756 27.1158 30.323C27.092 30.1059 27.1065 29.8512 27.0237 29.6929C26.9156 29.8294 26.8044 29.9624 26.6694 30.073ZM28.8487 30.3356C28.7532 30.2384 28.6873 30.1124 28.5861 30.0209C28.5484 30.107 28.504 30.192 28.4679 30.2835C28.4318 30.375 28.367 30.4879 28.363 30.5722C28.3531 30.7783 28.5801 30.8746 28.7043 31.0057C28.762 30.8008 28.7876 30.5637 28.8749 30.3884C28.9564 30.491 28.9931 30.6382 29.1113 30.7036C29.1719 30.5936 29.2139 30.4648 29.269 30.3489C29.3813 30.4472 29.485 30.5538 29.6103 30.6382C29.5532 30.4012 29.4816 30.0669 29.3739 29.8373C29.3471 29.924 29.3122 30.0027 29.269 30.0732C29.1468 29.955 29.0542 29.8066 28.9143 29.7057C28.8749 29.8982 28.859 30.1142 28.8487 30.3356ZM27.5095 29.8371C27.2969 29.9885 27.5329 30.296 27.6149 30.4677C27.6522 30.3163 27.6865 30.1625 27.7198 30.0076C27.6477 29.9531 27.5783 29.8954 27.5095 29.8371ZM28.2448 30.0207C28.2843 30.1694 28.2863 30.3555 28.3631 30.4675C28.4364 30.3126 28.4907 30.1396 28.5595 29.9813C28.5222 29.927 28.4984 29.8584 28.4284 29.8369C28.3971 29.9274 28.2815 29.9348 28.2448 30.0207ZM26.6563 30.4143C26.5532 30.5215 26.4537 30.632 26.315 30.7036C26.2235 30.9685 26.4128 31.1933 26.4986 31.3991C26.618 31.3124 26.6692 31.1575 26.788 31.0712C26.8357 31.2249 26.8684 31.3932 26.9457 31.5174C27.0744 31.427 27.1483 31.2133 27.2731 31.1632C27.302 31.3053 27.3004 31.4772 27.3785 31.5702C27.4251 31.3192 27.4851 31.0817 27.5357 30.8347C27.4296 30.8562 27.3524 31.0183 27.2469 31.0845C27.1742 30.8946 27.127 30.6798 27.0506 30.4933C26.9474 30.5655 26.9329 30.7264 26.8403 30.8085C26.7868 30.6692 26.749 30.5149 26.6563 30.4143ZM29.098 30.8085C29.023 30.6997 28.9786 30.561 28.8616 30.4933C28.8144 30.6909 28.7606 30.8825 28.7178 31.0845C28.6083 31.0217 28.535 30.8557 28.4284 30.8347C28.4813 31.0922 28.5111 31.3733 28.6121 31.583C28.6336 31.4297 28.6598 31.2806 28.7042 31.1501C28.8224 31.2638 28.8841 31.4338 29.0321 31.5176C29.0733 31.3616 29.1293 31.2212 29.1765 31.0714C29.2876 31.1663 29.3402 31.3189 29.4659 31.3993C29.5386 31.1884 29.7233 30.9918 29.6492 30.7172C29.5127 30.6305 29.411 30.5092 29.2817 30.4148C29.2052 30.5303 29.1776 30.6948 29.098 30.8085ZM27.6676 31.8453C27.6 31.8831 27.5522 31.9409 27.4835 31.9769C27.4556 31.9442 27.3746 31.837 27.3524 31.8848C27.3343 31.9371 27.332 32.0047 27.3129 32.0558C27.4382 32.0675 27.6861 32.0192 27.7457 32.1346C27.9233 32.1101 28.0666 32.1679 28.2053 32.1346C28.2571 32.1218 28.2974 32.0658 28.3497 32.0558C28.4474 32.0365 28.5424 32.0732 28.639 32.0558C28.6211 31.9987 28.6351 31.9109 28.599 31.8722C28.5129 31.8688 28.5279 31.9666 28.4418 31.9637C28.3969 31.9038 28.3159 31.8793 28.2707 31.8193C28.2207 31.4541 28.1892 31.0693 28.1136 30.7296C28.0837 31.0925 28.167 31.4547 28.1525 31.8455C28.082 31.906 28.0482 32.0038 27.9689 32.0558C27.939 31.9679 27.8197 31.9231 27.7978 31.8065C27.7406 31.4856 27.9172 30.9883 27.8378 30.7296C27.7642 31.0845 27.748 31.4975 27.6676 31.8453ZM25.9868 31.8587C26.0428 31.8942 26.1078 31.9215 26.2099 31.911C26.296 31.8095 26.3548 31.6799 26.4592 31.5963C26.5058 31.7379 26.5547 31.8777 26.6175 32.0033C26.6474 32.0033 26.6786 32.0033 26.709 32.0033C26.7801 31.9172 26.8196 31.799 26.8926 31.7146C26.9387 31.8172 26.9608 31.944 27.0103 32.0425C27.0702 32.0664 27.1674 32.0519 27.2467 32.0559C27.3794 31.8311 27.3277 31.4741 27.2339 31.2423C27.1134 31.3494 27.0423 31.5054 26.9188 31.6097C26.8653 31.4576 26.846 31.2712 26.7477 31.1635C26.6562 31.2678 26.574 31.3826 26.4856 31.4915C26.3924 31.3266 26.3662 31.0941 26.2358 30.9662C26.1655 31.2758 26.0763 31.5674 25.9868 31.8587ZM29.4661 31.4912C29.3751 31.3806 29.3094 31.2442 29.1901 31.1632C29.1131 31.2914 29.1011 31.4858 29.019 31.6094C28.9181 31.4957 28.8269 31.3036 28.7044 31.2547C28.6438 31.5227 28.5646 31.8319 28.7178 32.0556C28.7928 32.0522 28.8849 32.0656 28.9409 32.0422C29.0015 31.9501 29.0114 31.8069 29.0719 31.7143C29.1273 31.812 29.1868 31.9053 29.2425 32.003C29.278 32.003 29.3129 32.003 29.3474 32.003C29.4062 31.8649 29.4469 31.7083 29.5184 31.5827C29.5895 31.7086 29.6745 31.8202 29.7677 31.924C29.8411 31.9052 29.9337 31.906 29.9647 31.8452C29.8757 31.5621 29.8016 31.2646 29.7154 30.9792C29.7021 30.9792 29.6893 30.9792 29.6759 30.9792C29.6138 31.1575 29.5406 31.3252 29.4661 31.4912ZM26.2494 31.9377C26.3599 31.9504 26.4438 31.9883 26.5645 31.9899C26.523 31.8782 26.5029 31.7452 26.4201 31.6753C26.3758 31.7749 26.2832 31.8272 26.2494 31.9377ZM29.4001 31.9897C29.4751 31.9963 29.6016 31.9482 29.7022 31.9374C29.6923 31.8582 29.59 31.7621 29.5317 31.6881C29.449 31.7498 29.4317 31.8777 29.4001 31.9897ZM26.7612 32.0164C26.8044 32.0431 26.8945 32.0235 26.9582 32.0298C26.9332 31.9536 26.9378 31.8487 26.8667 31.8195C26.8277 31.8814 26.7817 31.9354 26.7612 32.0164ZM29.0065 32.0298C29.0676 32.0298 29.1293 32.0298 29.1901 32.0298C29.1728 31.9326 29.1401 31.8516 29.0586 31.8195C29.0554 31.8976 28.9877 31.9715 29.0065 32.0298ZM30.2801 31.8453C29.9731 31.9124 29.5741 32.0286 29.1904 32.069C28.8951 32.0994 28.6308 32.1085 28.3499 32.0951C28.273 32.1784 28.3127 32.2739 28.3633 32.3577C28.6302 32.3978 28.9301 32.3793 29.1904 32.3443C29.1758 32.0658 29.5067 31.9967 29.5445 32.2921C29.8282 32.2298 30.1456 32.2011 30.3716 32.0818C30.3738 31.9709 30.3733 31.8615 30.2801 31.8453ZM26.5253 32.0425C26.3 32.0104 25.9964 31.9038 25.7898 31.8589C25.6727 31.8333 25.6377 31.8544 25.5934 31.9112C25.5934 31.9728 25.5934 32.0346 25.5934 32.0954C25.835 32.1948 26.132 32.2392 26.4204 32.2924C26.4449 31.996 26.7779 32.0514 26.7612 32.3446C27.0466 32.3791 27.2964 32.3981 27.5889 32.358C27.6472 32.2659 27.6855 32.198 27.615 32.0954C27.264 32.1031 26.9499 32.104 26.5253 32.0425ZM25.3308 32.2C25.4218 32.1767 25.4922 32.134 25.554 32.0818C25.5479 32.0178 25.5673 31.928 25.5406 31.8848C25.3933 31.9053 25.2884 32.0346 25.3308 32.2ZM30.4111 32.0951C30.477 32.1383 30.5438 32.1819 30.6342 32.2C30.6652 32.0451 30.5714 31.9053 30.4245 31.8848C30.3972 31.932 30.4171 32.027 30.4111 32.0951ZM26.5907 32.4493C26.6191 32.4166 26.6595 32.3959 26.6956 32.3706C26.7049 32.2651 26.6916 32.1824 26.6433 32.1347C26.4125 32.1025 26.4213 32.4237 26.5907 32.4493ZM29.2558 32.3577C29.2746 32.4032 29.3351 32.4131 29.3868 32.4492C29.4405 32.4197 29.4661 32.362 29.5051 32.3182C29.4985 32.0303 29.1682 32.148 29.2558 32.3577ZM26.3938 32.3316C26.0442 32.3199 25.692 32.0746 25.3828 32.2267C25.3728 32.2906 25.3256 32.3177 25.3433 32.41C25.1952 32.3943 25.0247 32.5916 25.0153 32.6598C24.9948 32.809 25.1435 32.9173 25.225 33.0145C25.2157 33.1066 25.2332 33.1722 25.2645 33.2237C26.3758 33.5917 28.2121 33.5994 29.5837 33.4473C29.9868 33.4024 30.629 33.3612 30.7393 33.1322C30.7393 33.0799 30.7393 33.0273 30.7393 32.9745C30.8849 32.9361 30.9081 32.7763 30.9491 32.6331C30.8326 32.557 30.7931 32.4044 30.6078 32.3972C30.6444 32.3443 30.5822 32.2963 30.5816 32.2395C30.4179 32.1003 30.2224 32.2023 29.991 32.2523C29.673 32.3216 29.4646 32.3222 29.3865 32.5547C29.3538 32.4737 29.2754 32.4382 29.216 32.3836C28.965 32.4203 28.6348 32.447 28.3761 32.397C28.3078 32.5036 28.1578 32.5286 28.1396 32.6857C28.1024 32.5874 28.0402 32.5138 28.0475 32.3706C28.0044 32.3706 27.9597 32.3706 27.9165 32.3706C27.8977 32.4928 27.8711 32.6053 27.8111 32.6857C27.8006 32.5258 27.6446 32.5115 27.5886 32.397C27.3348 32.4558 26.9713 32.4027 26.7476 32.397C26.6578 32.4248 26.6194 32.5042 26.5512 32.5548C26.5413 32.4382 26.4463 32.4061 26.3938 32.3316ZM27.8248 32.1736C27.841 32.2412 27.8859 32.279 27.9169 32.3319C28.0769 32.3646 28.0911 32.2526 28.14 32.1736C28.0629 32.1523 27.9018 32.1523 27.8248 32.1736ZM27.6409 32.3972C27.6969 32.4544 27.7526 32.5132 27.8378 32.5416C27.889 32.4055 27.8535 32.2037 27.7063 32.1869C27.7181 32.2907 27.6298 32.2938 27.6409 32.3972ZM28.2056 32.1869C28.1241 32.2458 28.0215 32.464 28.1527 32.5416C28.2027 32.4771 28.2919 32.4532 28.3238 32.3706C28.2687 32.325 28.2809 32.2116 28.2056 32.1869Z" fill="#EEBC31"/>
<path d="M25.4228 31.2681C25.2812 31.3929 25.1158 31.5645 24.9766 31.6484C25.0388 29.8564 25.153 28.0153 25.213 26.1611C25.3486 26.2228 25.4972 26.3837 25.62 26.5025C25.5631 28.1056 25.4887 29.575 25.4228 31.2681Z" fill="#EEBC31"/>
<path d="M30.9881 31.6355C30.9131 31.65 30.8401 31.5272 30.765 31.4644C30.68 31.3939 30.5802 31.335 30.5286 31.2546C30.4459 29.9023 30.4658 28.4753 30.3575 27.1852C30.3413 26.9849 30.3009 26.6361 30.3313 26.5154C30.3725 26.3554 30.644 26.2945 30.7256 26.1484C30.8258 27.7952 30.8944 29.8615 30.9881 31.6355Z" fill="#EEBC31"/>
<path d="M25.7364 26.5947C25.8623 26.6652 25.9535 26.7707 26.0643 26.8573C26.0328 27.9126 25.9666 29.1759 25.9199 30.2306C25.9134 30.385 25.9577 30.6279 25.9065 30.7692C25.8511 30.9218 25.6368 31.004 25.5391 31.1367C25.5965 29.6076 25.6857 28.0928 25.7364 26.5947Z" fill="#EEBC31"/>
<path d="M30.4103 31.1104C30.393 31.1285 30.3566 31.0825 30.3316 31.0575C30.254 30.9807 30.1457 30.8625 30.069 30.782C30.0025 29.4979 29.9519 28.1582 29.8984 26.8829C29.9723 26.7641 30.0982 26.6976 30.2005 26.6069C30.277 27.9886 30.3441 29.6291 30.4103 31.1104Z" fill="#EEBC31"/>
<path d="M29.3602 27.1721C29.3403 28.517 28.8139 29.4702 27.9818 30.0469C27.1314 29.4623 26.6341 28.5244 26.5508 27.1721C27.1507 27.1682 27.6609 27.0045 27.9818 26.7651C28.3056 27.0365 28.787 27.1499 29.3602 27.1721ZM27.5091 27.08C27.4858 27.6175 27.4964 28.3413 27.4964 28.9314C27.4964 29.1468 27.4521 29.3998 27.4964 29.5615C27.5197 29.6459 27.6501 29.7241 27.7195 29.7846C27.8094 29.8634 27.8827 29.9344 27.9688 29.9816C28.097 29.881 28.4096 29.7273 28.4551 29.5613C28.4977 29.4024 28.4551 29.1582 28.4551 28.9445C28.4551 28.3301 28.4551 27.636 28.4551 27.0798C28.2845 26.996 28.1242 26.9027 27.956 26.8172C27.8354 26.9339 27.6385 26.9728 27.5091 27.08Z" fill="#EEBC31"/>
<path d="M25.6992 31.9243C25.7814 31.9516 25.9113 31.9309 25.9224 32.0297C25.853 32.0553 25.797 31.9652 25.6992 31.9768C25.6992 31.9593 25.6992 31.9419 25.6992 31.9243Z" fill="#EEBC31"/>
<path d="M30.2661 31.9507C30.209 31.9984 30.1175 32.0113 30.043 32.0422C30.0408 31.9507 30.2189 31.9064 30.2661 31.9507Z" fill="#EEBC31"/>
<path d="M26.0938 32.0559C26.2043 32.0681 26.3097 32.0849 26.3692 32.1474C26.2831 32.1508 26.1111 32.1296 26.0938 32.0559Z" fill="#EEBC31"/>
<path d="M29.8714 32.0689C29.833 32.1155 29.6727 32.1593 29.582 32.147C29.6431 32.095 29.7758 32.0436 29.8714 32.0689Z" fill="#EEBC31"/>
<path d="M29.1526 32.2395C29.0838 32.261 28.9324 32.261 28.8633 32.2395C28.886 32.1508 29.1231 32.1584 29.1526 32.2395Z" fill="#EEBC31"/>
<path d="M27.1277 32.2C27.1021 32.2972 26.9174 32.235 26.8125 32.2523C26.8207 32.1346 27.0398 32.2 27.1277 32.2Z" fill="#EEBC31"/>
<path d="M27.5221 32.2269C27.4581 32.2607 27.32 32.284 27.2461 32.2658C27.2725 32.1947 27.4462 32.2029 27.5221 32.2269Z" fill="#EEBC31"/>
<path d="M28.7056 32.279C28.605 32.2739 28.5215 32.2528 28.4297 32.2395C28.4792 32.1928 28.7056 32.1888 28.7056 32.279Z" fill="#EEBC31"/>
<path d="M30.5163 32.778C30.5757 32.7763 30.5436 32.6825 30.6078 32.6859C30.5985 32.726 30.6212 32.7336 30.6206 32.7646C30.5444 32.8053 30.4791 32.8252 30.3847 32.7908C30.2815 32.8457 30.1536 33.0349 30.0172 32.8957C29.9228 32.9113 29.9368 33.0338 29.8594 33.0667C29.7546 32.9841 29.6645 33.0247 29.5047 33.04C29.4575 33.0937 29.4536 33.1898 29.3603 33.1977C29.366 33.1377 29.4379 33.1443 29.4391 33.08C29.4246 33.0374 29.3498 33.0556 29.3208 33.0272C29.2963 32.9195 29.3802 32.92 29.4129 32.8694C29.4729 32.8839 29.478 32.9527 29.4917 33.0143C29.5405 33.0148 29.5744 33.0009 29.6099 32.9876C29.621 32.9114 29.6599 32.8628 29.7014 32.817C29.6991 32.7443 29.6542 32.6453 29.6619 32.6067C29.7369 32.624 29.7008 32.7523 29.7406 32.8037C29.8416 32.7944 29.9015 32.827 29.9243 32.8952C30.0263 32.8563 30.057 32.7375 30.1868 32.738C30.244 32.738 30.2747 32.7881 30.3312 32.7776C30.3469 32.6034 30.3014 32.2453 30.082 32.3833C30.0919 32.3146 30.1891 32.3322 30.2656 32.3311C30.4035 32.4259 30.2714 32.7903 30.5163 32.778ZM30.0565 32.8829C30.1171 32.9372 30.2691 32.9079 30.2535 32.8042C30.2165 32.738 30.0306 32.7664 30.0565 32.8829ZM29.7941 32.9483C29.824 32.9389 29.8606 32.9366 29.8857 32.9221C29.8857 32.7724 29.6759 32.8468 29.7941 32.9483ZM29.6759 32.9878C29.7086 32.9901 29.7166 32.9673 29.7413 32.961C29.7407 32.9184 29.747 32.8689 29.7017 32.8695C29.6779 32.8929 29.6404 32.9454 29.6759 32.9878ZM29.3604 33.0145C29.4011 33.0327 29.4198 33.0202 29.4525 33.0012C29.4525 32.9701 29.4298 32.9622 29.4391 32.9224C29.3849 32.925 29.3505 32.9466 29.3604 33.0145ZM29.8069 33.0145C29.8484 33.0495 29.903 33.0129 29.899 32.9611C29.8584 32.9693 29.8064 32.9645 29.8069 33.0145Z" fill="#EEBC31"/>
<path d="M25.7505 32.3972C25.7505 32.4188 25.7505 32.441 25.7505 32.4626C25.7317 32.483 25.6834 32.4742 25.6456 32.476C25.6345 32.4294 25.6439 32.4433 25.6328 32.3972C25.6689 32.3654 25.7096 32.3734 25.7505 32.3972Z" fill="#EEBC31"/>
<path d="M25.7237 32.5547C25.7254 32.5781 25.7075 32.5825 25.7103 32.607C25.6569 32.6082 25.6077 32.6053 25.6055 32.5547C25.6271 32.5348 25.7027 32.5348 25.7237 32.5547Z" fill="#EEBC31"/>
<path d="M28.4793 32.6599C28.4967 32.6599 28.5143 32.6599 28.5316 32.6599C28.5509 32.6787 28.5509 32.746 28.5316 32.7648C28.5143 32.7648 28.4967 32.7648 28.4793 32.7648C28.46 32.7457 28.46 32.6786 28.4793 32.6599Z" fill="#EEBC31"/>
<path d="M27.0358 32.6858C27.0764 32.8569 27.1057 33.2258 26.957 33.2502C26.809 33.2741 26.8516 33.0504 26.7078 33.04C26.6199 33.0721 26.5114 33.1093 26.419 33.0667C26.3537 33.0713 26.3642 33.1517 26.3008 33.1588C26.3852 33.0716 26.3497 32.9607 26.3403 32.8564C26.4108 32.8646 26.4207 32.9334 26.419 33.0147C26.4568 33.094 26.6149 33.0409 26.6683 33.0147C26.6399 32.9593 26.6044 32.9116 26.5762 32.8564C26.6566 32.8354 26.6566 32.7609 26.7339 32.7649C26.8621 32.7709 26.8934 32.9693 26.7601 33.0275C26.8462 33.0596 26.8567 33.1673 26.9311 33.2111C27.1043 33.1738 26.9776 32.8381 27.0358 32.6858ZM26.6425 32.8959C26.6402 32.9459 26.6856 32.9746 26.734 33.0013C26.9554 32.9018 26.6507 32.6852 26.6425 32.8959Z" fill="#EEBC31"/>
<path d="M27.2092 32.6858C27.2519 32.7762 27.1942 32.9833 27.1825 33.1062C27.1447 33.02 27.1905 32.8015 27.2092 32.6858Z" fill="#EEBC31"/>
<path d="M28.6668 32.6858C28.7546 32.773 28.6511 33.0516 28.7583 33.1186C28.8481 33.0919 28.9086 33.1041 28.9294 33.0271C28.9475 32.9589 28.8532 32.9183 28.9032 32.8694C29.0203 32.8751 28.9427 33.04 28.9294 33.1058C28.7923 33.1425 28.6523 33.1553 28.5352 33.132C28.5423 33.0649 28.6128 33.0609 28.6667 33.0399C28.7162 32.9268 28.6384 32.7776 28.6668 32.6858Z" fill="#EEBC31"/>
<path d="M28.5883 32.8435C28.5965 32.9203 28.4295 32.8762 28.4834 32.8301C28.5022 32.8126 28.5872 32.8035 28.5883 32.8435Z" fill="#EEBC31"/>
<path d="M29.0736 33.2769C29.0916 33.2064 29.1347 33.1632 29.1658 33.1058C29.1291 33.0325 28.9847 32.9637 29.0865 32.8694C29.2882 32.8995 29.1933 33.2289 29.0736 33.2769ZM29.0864 32.935C29.0929 32.9857 29.1137 33.0223 29.1657 33.0272C29.1972 32.9885 29.1379 32.8913 29.0864 32.935Z" fill="#EEBC31"/>
<path d="M30.5295 32.9221C30.5289 32.9989 30.4357 32.9733 30.3984 32.9482C30.4189 32.875 30.4859 32.8968 30.5295 32.9221Z" fill="#EEBC31"/>
<path d="M27.577 32.9092C27.697 32.993 27.9172 33.0385 28.0755 32.9745C28.1139 33.0112 28.1099 33.0894 28.1415 33.1322C28.1572 33.1172 28.1876 33.1172 28.2202 33.1189C28.193 32.9628 28.4101 32.9245 28.4039 33.0927C28.3638 33.1672 28.2462 33.1626 28.1279 33.1587C28.0742 33.1883 28.0742 33.2709 28.023 33.3025C27.9647 33.282 27.9165 33.2513 27.9048 33.1848C27.7226 33.1471 27.6987 33.1698 27.4844 33.1587C27.4315 33.2209 27.3807 33.3497 27.3008 33.3423C27.3392 33.2752 27.4139 33.2457 27.4323 33.1587C27.4079 33.1087 27.3164 33.0695 27.3664 32.9876C27.4923 32.9672 27.4309 33.1337 27.5369 33.132C27.6486 33.0869 27.5631 32.9822 27.577 32.9092ZM27.6166 33.1323C27.6876 33.1329 27.8082 33.1346 27.9053 33.1457C27.9465 33.179 27.9513 33.2483 28.0102 33.264C28.0533 33.2068 28.1278 33.0991 28.0631 33.0147C27.9184 33.1343 27.6027 32.8592 27.6166 33.1323ZM28.2725 33.1189C28.3407 33.1306 28.3658 33.0985 28.3646 33.0402C28.3149 32.9734 28.2259 33.0508 28.2725 33.1189Z" fill="#EEBC31"/>
<path d="M25.6606 32.9745C25.7021 32.9634 25.7013 32.995 25.726 33.0013C25.7276 33.0413 25.7098 33.064 25.6998 33.0928C25.624 33.0823 25.624 33.016 25.6606 32.9745Z" fill="#EEBC31"/>
<path d="M25.88 33.0275C25.9354 33.1184 25.8018 33.1673 25.7617 33.0928C25.7668 33.0368 25.8083 33.0167 25.88 33.0275Z" fill="#EEBC31"/>
<path d="M26.0798 33.1323C26.0671 33.1328 26.0694 33.1485 26.0665 33.159C26.0361 33.159 26.0054 33.159 25.9743 33.159C25.9125 33.0507 26.085 33.0123 26.0798 33.1323Z" fill="#EEBC31"/>
<path d="M28.652 33.2109C28.7219 33.2126 28.7137 33.3246 28.6654 33.3425C28.6119 33.3354 28.6159 33.2342 28.652 33.2109Z" fill="#EEBC31"/>
<path d="M28.8376 33.3425C28.7992 33.328 28.76 33.3147 28.7461 33.2771C28.7859 33.1515 28.9467 33.2638 28.8376 33.3425Z" fill="#EEBC31"/>
<path d="M25.8167 32.3972C25.8301 32.3972 25.8429 32.3972 25.8563 32.3972C25.8602 32.5783 25.586 32.8875 25.8958 32.9091C25.9464 32.8769 25.9185 32.7658 25.9873 32.7514C25.995 32.8207 25.9605 32.8474 25.9478 32.8958C26.0077 33.064 26.3101 32.9685 26.1842 32.7781C26.3314 32.7804 26.2157 32.9376 26.197 33.0013C26.112 33.0413 25.9898 32.999 25.9215 32.9484C25.7755 32.9367 25.6467 32.9077 25.6328 32.7648C25.7638 32.7119 25.7928 32.557 25.8167 32.3972Z" fill="#EEBC31"/>
</g>
<defs>
<filter id="filter0_d_355_126" x="2" y="6" width="52" height="52" filterUnits="userSpaceOnUse" color-interpolation-filters="sRGB">
<feFlood flood-opacity="0" result="BackgroundImageFix"/>
<feColorMatrix in="SourceAlpha" type="matrix" values="0 0 0 0 0 0 0 0 0 0 0 0 0 0 0 0 0 0 127 0" result="hardAlpha"/>
<feOffset dy="4"/>
<feGaussianBlur stdDeviation="4"/>
<feComposite in2="hardAlpha" operator="out"/>
<feColorMatrix type="matrix" values="0 0 0 0 0 0 0 0 0 0 0 0 0 0 0 0 0 0 0.25 0"/>
<feBlend mode="normal" in2="BackgroundImageFix" result="effect1_dropShadow_355_126"/>
<feBlend mode="normal" in="SourceGraphic" in2="effect1_dropShadow_355_126" result="shape"/>
</filter>
<clipPath id="clip0_355_126">
<rect width="56" height="56" fill="white"/>
</clipPath>
</defs>
</svg>
