<svg width="120" height="120" viewBox="0 0 120 120" fill="none" xmlns="http://www.w3.org/2000/svg">
<path d="M21.6125 0C15.8805 0 10.3833 2.27702 6.33015 6.33015C2.27702 10.3833 0 15.8805 0 21.6125V39.3779C0 40.7007 0.525466 41.9693 1.4608 42.9046C2.39614 43.84 3.66473 44.3654 4.98749 44.3654C6.31026 44.3654 7.57885 43.84 8.51419 42.9046C9.44952 41.9693 9.97499 40.7007 9.97499 39.3779V21.6125C9.97499 18.526 11.2011 15.566 13.3835 13.3835C15.566 11.2011 18.526 9.97499 21.6125 9.97499H39.3779C40.7007 9.97499 41.9693 9.44952 42.9046 8.51419C43.84 7.57885 44.3654 6.31026 44.3654 4.98749C44.3654 3.66473 43.84 2.39614 42.9046 1.4608C41.9693 0.525466 40.7007 0 39.3779 0H21.6125ZM80.3219 0C78.9992 0 77.7306 0.525466 76.7952 1.4608C75.8599 2.39614 75.3344 3.66473 75.3344 4.98749C75.3344 6.31026 75.8599 7.57885 76.7952 8.51419C77.7306 9.44952 78.9992 9.97499 80.3219 9.97499H98.0874C101.174 9.97499 104.134 11.2011 106.316 13.3835C108.499 15.566 109.725 18.526 109.725 21.6125V39.3779C109.725 40.7007 110.25 41.9693 111.186 42.9046C112.121 43.84 113.39 44.3654 114.712 44.3654C116.035 44.3654 117.304 43.84 118.239 42.9046C119.174 41.9693 119.7 40.7007 119.7 39.3779V21.6125C119.7 15.8805 117.423 10.3833 113.37 6.33015C109.317 2.27702 103.819 0 98.0874 0H80.3219ZM9.97499 80.3219C9.97499 78.9992 9.44952 77.7306 8.51419 76.7952C7.57885 75.8599 6.31026 75.3344 4.98749 75.3344C3.66473 75.3344 2.39614 75.8599 1.4608 76.7952C0.525466 77.7306 0 78.9992 0 80.3219V98.0874C0 103.819 2.27702 109.317 6.33015 113.37C10.3833 117.423 15.8805 119.7 21.6125 119.7H39.3779C40.7007 119.7 41.9693 119.174 42.9046 118.239C43.84 117.304 44.3654 116.035 44.3654 114.712C44.3654 113.39 43.84 112.121 42.9046 111.186C41.9693 110.25 40.7007 109.725 39.3779 109.725H21.6125C18.526 109.725 15.566 108.499 13.3835 106.316C11.2011 104.134 9.97499 101.174 9.97499 98.0874V80.3219ZM119.7 80.3219C119.7 78.9992 119.174 77.7306 118.239 76.7952C117.304 75.8599 116.035 75.3344 114.712 75.3344C113.39 75.3344 112.121 75.8599 111.186 76.7952C110.25 77.7306 109.725 78.9992 109.725 80.3219V98.0874C109.725 101.174 108.499 104.134 106.316 106.316C104.134 108.499 101.174 109.725 98.0874 109.725H80.3219C78.9992 109.725 77.7306 110.25 76.7952 111.186C75.8599 112.121 75.3344 113.39 75.3344 114.712C75.3344 116.035 75.8599 117.304 76.7952 118.239C77.7306 119.174 78.9992 119.7 80.3219 119.7H98.0874C103.819 119.7 109.317 117.423 113.37 113.37C117.423 109.317 119.7 103.819 119.7 98.0874V80.3219Z" fill="#5B94C2" fill-opacity="0.8"/>
</svg>
