<svg width="21" height="19" viewBox="0 0 21 19" fill="none" xmlns="http://www.w3.org/2000/svg">
<path d="M18.1665 3.79167H15.6883L13.094 1.19746C13.0052 1.10829 12.8996 1.03758 12.7833 0.98939C12.667 0.941199 12.5424 0.916484 12.4165 0.916667H8.58317C8.4573 0.916484 8.33264 0.941199 8.21635 0.98939C8.10007 1.03758 7.99447 1.10829 7.90563 1.19746L5.31142 3.79167H2.83317C1.77613 3.79167 0.916504 4.65129 0.916504 5.70833V16.25C0.916504 17.307 1.77613 18.1667 2.83317 18.1667H18.1665C19.2235 18.1667 20.0832 17.307 20.0832 16.25V5.70833C20.0832 4.65129 19.2235 3.79167 18.1665 3.79167ZM10.4998 15.2917C7.90275 15.2917 5.70817 13.0971 5.70817 10.5C5.70817 7.90292 7.90275 5.70833 10.4998 5.70833C13.0969 5.70833 15.2915 7.90292 15.2915 10.5C15.2915 13.0971 13.0969 15.2917 10.4998 15.2917Z" fill="white"/>
</svg>
