<svg width="18" height="15" viewBox="0 0 18 15" fill="none" xmlns="http://www.w3.org/2000/svg">
<path d="M12.9648 1.21125C13.4437 1.21125 13.9118 1.35003 14.31 1.61003C14.7082 1.87003 15.0185 2.23959 15.2018 2.67196C15.385 3.10433 15.433 3.5801 15.3395 4.0391C15.2461 4.4981 15.0155 4.91972 14.6769 5.25064C14.3383 5.58156 13.9069 5.80692 13.4372 5.89822C12.9675 5.98953 12.4807 5.94267 12.0382 5.76357C11.5958 5.58448 11.2177 5.28119 10.9516 4.89207C10.6856 4.50295 10.5436 4.04546 10.5436 3.57747C10.5436 2.94991 10.7987 2.34805 11.2527 1.9043C11.7068 1.46055 12.3227 1.21125 12.9648 1.21125V1.21125ZM6.83315 5.91193L10.744 9.73388C10.7793 9.76909 10.8214 9.79707 10.8679 9.81616C10.9144 9.83526 10.9644 9.8451 11.0148 9.8451C11.0653 9.8451 11.1152 9.83526 11.1617 9.81616C11.2082 9.79707 11.2503 9.76909 11.2856 9.73388L12.0331 9.00337C12.1052 8.93354 12.2025 8.89436 12.304 8.89436C12.4054 8.89436 12.5028 8.93354 12.5748 9.00337L16.8052 13.1376C16.8594 13.1895 16.8964 13.256 16.9115 13.3286C16.9266 13.4012 16.9191 13.4765 16.8899 13.5449C16.8608 13.6132 16.8113 13.6715 16.7479 13.7122C16.6846 13.7528 16.6102 13.7739 16.5344 13.7729H1.45981C1.39028 13.7734 1.32193 13.7552 1.26225 13.7204C1.20256 13.6855 1.15384 13.6353 1.1214 13.5752C1.08897 13.515 1.07408 13.4474 1.07835 13.3795C1.08263 13.3117 1.10591 13.2463 1.14565 13.1906L6.29148 5.98075C6.32182 5.94069 6.36012 5.90703 6.40409 5.88178C6.44805 5.85653 6.49677 5.8402 6.54734 5.83377C6.59791 5.82735 6.64929 5.83096 6.6984 5.84439C6.7475 5.85782 6.79334 5.88079 6.83315 5.91193V5.91193Z" stroke="white" stroke-linecap="round" stroke-linejoin="round"/>
</svg>
