<svg width="19" height="19" viewBox="0 0 19 19" fill="none" xmlns="http://www.w3.org/2000/svg">
<path d="M3.43056 0C2.52072 0 1.64814 0.361432 1.00479 1.00479C0.361432 1.64814 0 2.52072 0 3.43056V6.25047C0 6.46044 0.0834074 6.6618 0.231874 6.81027C0.38034 6.95873 0.581704 7.04214 0.791667 7.04214C1.00163 7.04214 1.20299 6.95873 1.35146 6.81027C1.49993 6.6618 1.58333 6.46044 1.58333 6.25047V3.43056C1.58333 2.94064 1.77795 2.47079 2.12437 2.12437C2.47079 1.77795 2.94064 1.58333 3.43056 1.58333H6.25047C6.46044 1.58333 6.6618 1.49993 6.81027 1.35146C6.95873 1.20299 7.04214 1.00163 7.04214 0.791667C7.04214 0.581704 6.95873 0.38034 6.81027 0.231874C6.6618 0.0834074 6.46044 0 6.25047 0H3.43056ZM12.7495 0C12.5396 0 12.3382 0.0834074 12.1897 0.231874C12.0413 0.38034 11.9579 0.581704 11.9579 0.791667C11.9579 1.00163 12.0413 1.20299 12.1897 1.35146C12.3382 1.49993 12.5396 1.58333 12.7495 1.58333H15.5694C16.0594 1.58333 16.5292 1.77795 16.8756 2.12437C17.222 2.47079 17.4167 2.94064 17.4167 3.43056V6.25047C17.4167 6.46044 17.5001 6.6618 17.6485 6.81027C17.797 6.95873 17.9984 7.04214 18.2083 7.04214C18.4183 7.04214 18.6197 6.95873 18.7681 6.81027C18.9166 6.6618 19 6.46044 19 6.25047V3.43056C19 2.52072 18.6386 1.64814 17.9952 1.00479C17.3519 0.361432 16.4793 0 15.5694 0H12.7495ZM1.58333 12.7495C1.58333 12.5396 1.49993 12.3382 1.35146 12.1897C1.20299 12.0413 1.00163 11.9579 0.791667 11.9579C0.581704 11.9579 0.38034 12.0413 0.231874 12.1897C0.0834074 12.3382 0 12.5396 0 12.7495V15.5694C0 16.4793 0.361432 17.3519 1.00479 17.9952C1.64814 18.6386 2.52072 19 3.43056 19H6.25047C6.46044 19 6.6618 18.9166 6.81027 18.7681C6.95873 18.6197 7.04214 18.4183 7.04214 18.2083C7.04214 17.9984 6.95873 17.797 6.81027 17.6485C6.6618 17.5001 6.46044 17.4167 6.25047 17.4167H3.43056C2.94064 17.4167 2.47079 17.222 2.12437 16.8756C1.77795 16.5292 1.58333 16.0594 1.58333 15.5694V12.7495ZM19 12.7495C19 12.5396 18.9166 12.3382 18.7681 12.1897C18.6197 12.0413 18.4183 11.9579 18.2083 11.9579C17.9984 11.9579 17.797 12.0413 17.6485 12.1897C17.5001 12.3382 17.4167 12.5396 17.4167 12.7495V15.5694C17.4167 16.0594 17.222 16.5292 16.8756 16.8756C16.5292 17.222 16.0594 17.4167 15.5694 17.4167H12.7495C12.5396 17.4167 12.3382 17.5001 12.1897 17.6485C12.0413 17.797 11.9579 17.9984 11.9579 18.2083C11.9579 18.4183 12.0413 18.6197 12.1897 18.7681C12.3382 18.9166 12.5396 19 12.7495 19H15.5694C16.4793 19 17.3519 18.6386 17.9952 17.9952C18.6386 17.3519 19 16.4793 19 15.5694V12.7495ZM4.48611 8.70833C4.27615 8.70833 4.07478 8.79174 3.92632 8.94021C3.77785 9.08867 3.69444 9.29004 3.69444 9.5C3.69444 9.70996 3.77785 9.91133 3.92632 10.0598C4.07478 10.2083 4.27615 10.2917 4.48611 10.2917H14.5139C14.7239 10.2917 14.9252 10.2083 15.0737 10.0598C15.2221 9.91133 15.3056 9.70996 15.3056 9.5C15.3056 9.29004 15.2221 9.08867 15.0737 8.94021C14.9252 8.79174 14.7239 8.70833 14.5139 8.70833H4.48611Z" fill="#5B94C2" fill-opacity="0.8"/>
</svg>
